<?xml version="1.0" encoding="utf-8"?>
<!-- Generator: Adobe Illustrator 25.2.3, SVG Export Plug-In . SVG Version: 6.00 Build 0)  -->
<svg version="1.1" id="Layer_1" xmlns="http://www.w3.org/2000/svg" xmlns:xlink="http://www.w3.org/1999/xlink" x="0px" y="0px"
	 viewBox="0 0 264 280" style="enable-background:new 0 0 264 280;" xml:space="preserve">
<style type="text/css">
	.st0{fill-rule:evenodd;clip-rule:evenodd;fill:#20272F;}
	.st1{clip-path:url(#SVGID_1_);}
	.st2{fill-rule:evenodd;clip-rule:evenodd;fill:#EDB98A;}
	.st3{filter:url(#Adobe_OpacityMaskFilter);}
	.st4{fill-rule:evenodd;clip-rule:evenodd;fill:#FFFFFF;}
	.st5{mask:url(#mask-6_1_);fill-rule:evenodd;clip-rule:evenodd;fill-opacity:0.1;}
	.st6{fill-rule:evenodd;clip-rule:evenodd;fill:#F0CBC5;}
	.st7{fill-rule:evenodd;clip-rule:evenodd;fill:#F4F4F4;}
	.st8{fill-rule:evenodd;clip-rule:evenodd;fill-opacity:0.7;}
	.st9{filter:url(#Adobe_OpacityMaskFilter_1_);}
	.st10{mask:url(#react-mask-599_2_);fill-rule:evenodd;clip-rule:evenodd;fill:#FFFFFF;}
	.st11{filter:url(#Adobe_OpacityMaskFilter_2_);}
	.st12{mask:url(#react-mask-599_1_);}
	.st13{fill-rule:evenodd;clip-rule:evenodd;fill:#FF4F6D;}
	.st14{fill-rule:evenodd;clip-rule:evenodd;fill-opacity:0.16;}
	.st15{fill-rule:evenodd;clip-rule:evenodd;fill-opacity:0.6;}
	.st16{filter:url(#Adobe_OpacityMaskFilter_3_);}
	.st17{mask:url(#react-mask-820_1_);}
	.st18{fill-rule:evenodd;clip-rule:evenodd;fill:#724133;}
	.st19{fill-rule:evenodd;clip-rule:evenodd;fill-opacity:0.24;}
	.st20{fill:url(#SVGID_2_);}
</style>
<image style="display:none;overflow:visible;" width="736" height="1379" xlink:href="A50D273D.jpg"  transform="matrix(1 0 0 1 -815.5 -364.11)">
</image>
<ellipse class="st0" cx="132" cy="252.6" rx="126" ry="17.5"/>
<g>
	<defs>
		<path id="SVGID_4_" d="M232,241.9c4.8-21.8-22.2-47.3-22.2-47.3s0-106.2-0.3-114.8c-0.3-8.6-2.2-18.8-2.2-18.8S194.7,2.6,132,7.2
			c-62.8,4.6-66.8,64.9-66.8,64.9v123.7c-21.2,12.1-22.7,41.9-22.8,44.4C19.9,243.4,6,247.8,6,252.6c0,9.7,56.4,17.5,126,17.5
			s126-7.8,126-17.5C258,248.6,248.3,244.9,232,241.9z"/>
	</defs>
	<clipPath id="SVGID_1_">
		<use xlink:href="#SVGID_4_"  style="overflow:visible;"/>
	</clipPath>
	<g class="st1">
		<g id="Body" transform="translate(32.000000, 36.000000)">
			<g>
				<path id="path-5_1_" class="st2" d="M127.7,127.2v17.4h3.8l0,0c37.7,0,68.2,30.6,68.2,68.2v28.5H10.2v-28.5
					c0-37.7,30.6-68.2,68.2-68.2l0,0h3.8v-17.4c-16.3-7.8-28.1-23.6-30-42.4c-5.5-0.8-9.8-5.5-9.8-11.3V60.3
					c0-5.6,4.1-10.3,9.5-11.2v-5.8l0,0c0-29.3,23.8-53.1,53.1-53.1l0,0l0,0c29.3,0,53.1,23.8,53.1,53.1V49c5.4,0.9,9.5,5.6,9.5,11.2
					v13.3c0,5.7-4.2,10.5-9.8,11.3C155.8,103.6,144,119.4,127.7,127.2z"/>
			</g>
			<defs>
				<filter id="Adobe_OpacityMaskFilter" filterUnits="userSpaceOnUse" x="51.9" y="65" width="106.2" height="74.9">
					<feColorMatrix  type="matrix" values="1 0 0 0 0  0 1 0 0 0  0 0 1 0 0  0 0 0 1 0"/>
				</filter>
			</defs>
			<mask maskUnits="userSpaceOnUse" x="51.9" y="65" width="106.2" height="74.9" id="mask-6_1_">
				<g class="st3">
					<path id="path-5_2_" class="st4" d="M127.7,127.2v17.4h3.8l0,0c37.7,0,68.2,30.6,68.2,68.2v8.5H10.2v-8.5
						c0-37.7,30.6-68.2,68.2-68.2l0,0h3.8v-17.4c-16.3-7.8-28.1-23.6-30-42.4c-5.5-0.8-9.8-5.5-9.8-11.3V60.3
						c0-5.6,4.1-10.3,9.5-11.2v-5.8l0,0c0-29.3,23.8-53.1,53.1-53.1l0,0l0,0c29.3,0,53.1,23.8,53.1,53.1V49
						c5.4,0.9,9.5,5.6,9.5,11.2v13.3c0,5.7-4.2,10.5-9.8,11.3C155.8,103.6,144,119.4,127.7,127.2z"/>
				</g>
			</mask>
			<path id="Neck-Shadow" class="st5" d="M158,65v21.8c0,29.3-23.8,53.1-53.1,53.1s-53.1-23.8-53.1-53.1V65v14.2
				c0,29.3,23.8,53.1,53.1,53.1S158,108.5,158,79.2V65z"/>
		</g>
		<g id="Clothing_x2F_Overall" transform="translate(0.000000, 170.000000)">
			<g id="Overall">
				<g>
					<path id="react-path-574_9_" class="st6" d="M100.9,11.3v42h72v-42c8.9,1.2,17.2,4.2,24.6,8.5l0,87.6h-8.5H84.8h-8.5V19.8
						C83.7,15.4,92.1,12.5,100.9,11.3z"/>
				</g>
			</g>
			<circle id="Button" class="st7" cx="88.6" cy="61.8" r="4.7"/>
			<circle id="Button_1_" class="st7" cx="185.3" cy="61.8" r="4.7"/>
		</g>
		<g id="Face" transform="translate(76.000000, 82.000000)">
			<g id="Mouth_x2F_Smile" transform="translate(2.000000, 52.000000)">
				<g id="Mouth">
					<path id="react-path-598_1_" class="st8" d="M41-0.7c1,9,8.6,16,17.9,16c9.3,0,16.9-7,17.9-16.1c0.1-0.7-0.7-1.9-1.8-1.9
						c-14.1,0-24.9,0-32.2,0C41.9-2.7,40.9-1.6,41-0.7z"/>
				</g>
				<defs>
					<filter id="Adobe_OpacityMaskFilter_1_" filterUnits="userSpaceOnUse" x="44.7" y="-13.1" width="29.4" height="15.2">
						<feColorMatrix  type="matrix" values="1 0 0 0 0  0 1 0 0 0  0 0 1 0 0  0 0 0 1 0"/>
					</filter>
				</defs>
				<mask maskUnits="userSpaceOnUse" x="44.7" y="-13.1" width="29.4" height="15.2" id="react-mask-599_2_">
					<g class="st9">
						<path id="react-path-598_5_" class="st4" d="M41-0.7c1,9,8.6,16,17.9,16c9.3,0,16.9-7,17.9-16.1c0.1-0.7-0.7-1.9-1.8-1.9
							c-14.1,0-24.9,0-32.2,0C41.9-2.7,40.9-1.6,41-0.7z"/>
					</g>
				</mask>
				<path id="Teeth" class="st10" d="M49.5-13.1h19.9c2.6,0,4.7,2.1,4.7,4.7v5.7c0,2.6-2.1,4.7-4.7,4.7H49.5c-2.6,0-4.7-2.1-4.7-4.7
					v-5.7C44.7-11,46.9-13.1,49.5-13.1z"/>
				<defs>
					<filter id="Adobe_OpacityMaskFilter_2_" filterUnits="userSpaceOnUse" x="43.8" y="7.8" width="30.3" height="20.9">
						<feColorMatrix  type="matrix" values="1 0 0 0 0  0 1 0 0 0  0 0 1 0 0  0 0 0 1 0"/>
					</filter>
				</defs>
				<mask maskUnits="userSpaceOnUse" x="43.8" y="7.8" width="30.3" height="20.9" id="react-mask-599_1_">
					<g class="st11">
						<path id="react-path-598_2_" class="st4" d="M41-0.7c1,9,8.6,16,17.9,16c9.3,0,16.9-7,17.9-16.1c0.1-0.7-0.7-1.9-1.8-1.9
							c-14.1,0-24.9,0-32.2,0C41.9-2.7,40.9-1.6,41-0.7z"/>
					</g>
				</mask>
				<g id="Tongue" class="st12">
					<g transform="translate(38.000000, 24.000000)">
						<circle class="st13" cx="16.2" cy="-5.8" r="10.4"/>
						<circle class="st13" cx="25.7" cy="-5.8" r="10.4"/>
					</g>
				</g>
			</g>
			<g id="Nose_x2F_Default" transform="translate(28.000000, 40.000000)">
				<path id="Nose" class="st14" d="M21.6-6.8c0,4.2,5.1,7.6,11.4,7.6l0,0c6.3,0,11.4-3.4,11.4-7.6"/>
			</g>
			<g id="Eyes_x2F_Happy-_xD83D__xDE01_" transform="translate(0.000000, 8.000000)">
				<path id="Squint" class="st15" d="M23.2,8.6c1.8-3.6,5.7-6.1,10.3-6.1C38,2.5,42,5,43.7,8.5c0.5,1.1-0.2,1.9-1,1.3
					c-2.3-2-5.6-3.2-9.3-3.2c-3.5,0-6.8,1.2-9.1,3.1C23.6,10.3,22.7,9.6,23.2,8.6z"/>
				<path id="Squint_1_" class="st15" d="M78.2,8.6c1.8-3.6,5.7-6.1,10.3-6.1c4.6,0,8.5,2.5,10.3,6.1c0.5,1.1-0.2,1.9-1,1.3
					c-2.3-2-5.6-3.2-9.3-3.2c-3.5,0-6.8,1.2-9.1,3.1C78.5,10.3,77.6,9.6,78.2,8.6z"/>
			</g>
			<g id="Eyebrow_x2F_Natural_x2F_Default-Natural">
				<path id="Eyebrow" class="st15" d="M33-6.5c-5.5,0.3-14.4,4.3-14.2,9.8c0,0.2,0.3,0.3,0.4,0.1c2.6-2.8,21.2-5.6,27.7-4.1
					c0.6,0.1,1.1-0.5,0.7-0.9C44.4-5.2,38-6.7,33-6.5"/>
				<path id="Eyebrow_1_" class="st15" d="M89.8-6.5c5.5,0.3,14.4,4.3,14.2,9.8c0,0.2-0.3,0.3-0.4,0.1C101,0.7,82.4-2.2,75.9-0.7
					c-0.6,0.1-1.1-0.5-0.7-0.9C78.5-5.2,84.9-6.7,89.8-6.5"/>
			</g>
		</g>
		<g id="Top">
			<g id="Mask_1_">
			</g>
			<defs>
				<filter id="Adobe_OpacityMaskFilter_3_" filterUnits="userSpaceOnUse" x="66.8" y="9.1" width="140.3" height="244.3">
					<feColorMatrix  type="matrix" values="1 0 0 0 0  0 1 0 0 0  0 0 1 0 0  0 0 0 1 0"/>
				</filter>
			</defs>
			<mask maskUnits="userSpaceOnUse" x="66.8" y="9.1" width="140.3" height="244.3" id="react-mask-820_1_">
				<g class="st16">
					<rect id="react-path-822_1_" x="11.8" y="-8" class="st4" width="250.2" height="265.4"/>
				</g>
			</mask>
			<g id="Top_x2F_Long-Hair_x2F_Straight" class="st17">
				<g transform="translate(-1.000000, 0.000000)">
					<g id="Hair" transform="translate(59.000000, 18.000000)">
						<g id="Mask-Hair">
							<path id="react-path-823_1_" class="st18" d="M135.4,68.2c3.7,1.9,6.2,5.7,6.2,10.1v12.3c0,5.7-4.2,10.4-9.7,11.2
								c-1.7,19.2-13.5,35.5-30.1,43.4l0,0v17.4h3.8c16.6,0,31.8,5.9,43.6,15.7V61.2c0-19.4-7.9-36.9-20.5-49.6S98.3-8.9,78.9-8.9
								C40.2-8.9,8.8,22.5,8.8,61.2v174.1c12.9-1.8,22.7-12.9,22.7-26.3v-43.2c6.6-2.1,13.6-3.2,20.9-3.2h3.8v-17.4
								c-10.6-5.1-19.3-13.5-24.6-24V62.4c8.7-2.8,17.8-6.9,26.9-12.1C73,41.9,85,31.8,93.2,21.8c1.7,4.9,3.9,9.9,6.7,14.7
								c8.3,14.4,20,25,32.1,30.4V67c0.4,0.1,0.8,0.1,1.1,0.2C133.9,67.6,134.6,67.9,135.4,68.2z"/>
						</g>
					</g>
					<path id="Shadow" class="st19" d="M194.4,86.2c4.6,1.7,9.2,2.6,13.7,2.7l0,0v-9.6c0-19.4-7.9-36.9-20.5-49.6
						c12.7,12.7,20.5,30.2,20.5,49.6v117.2c-11.8-9.8-27-15.7-43.6-15.7h-3.8v-17.4l0,0c16.6-7.9,28.5-24.2,30.1-43.4
						c5.5-0.8,9.7-5.5,9.7-11.2V96.3C200.5,91.9,198,88,194.4,86.2z M192.1,85.3c-0.4-0.1-0.7-0.2-1.1-0.2v-0.2
						C191.4,85,191.8,85.1,192.1,85.3z M90.6,139.1c5.3,10.5,14,19,24.6,24v17.4h-3.8c-7.3,0-14.3,1.1-20.9,3.2V139.1z"/>
				</g>
			</g>
		</g>
	</g>
</g>
<linearGradient id="SVGID_2_" gradientUnits="userSpaceOnUse" x1="132" y1="235.056" x2="132" y2="270.056">
	<stop  offset="0.5486" style="stop-color:#20272F;stop-opacity:0"/>
	<stop  offset="1" style="stop-color:#20272F;stop-opacity:0.2"/>
</linearGradient>
<ellipse class="st20" cx="132" cy="252.6" rx="126" ry="17.5"/>
</svg>
